<?xml version="1.0" encoding="utf-8"?>
<!-- Generator: Adobe Illustrator 27.5.0, SVG Export Plug-In . SVG Version: 6.00 Build 0)  -->
<svg version="1.1" id="Layer_1" xmlns="http://www.w3.org/2000/svg" xmlns:xlink="http://www.w3.org/1999/xlink" x="0px" y="0px"
	 viewBox="0 0 4000 4000" style="enable-background:new 0 0 4000 4000;" xml:space="preserve">
<g>
	<g>
		<g style="opacity:0.2;">
			<ellipse style="fill:#000072;" cx="1950.87" cy="3470.366" rx="959.076" ry="110.848"/>
		</g>
		<g>
			<g>
				<path style="fill:#686779;" d="M3105.577,2013.162c-110.577,539.367-503.124,586.61-729.523,586.61l-85.182-188.666
					l-107.75-238.787c144.917,7.968,270.558-31.05,368.951-80.453c145.381-72.999,231.128-168.668,231.128-168.668
					L3105.577,2013.162z"/>
			</g>
			<g>
				<path style="fill:#5F5F82;" d="M3105.557,2013.146c-110.571,539.374-503.1,586.619-729.49,586.619l-7.188-15.89l-77.986-172.76
					l-107.78-238.781c144.905,7.946,270.562-31.071,368.978-80.445c39.679-19.91,74.912-41.57,105.179-62.474
					c80.634-55.664,125.94-106.22,125.94-106.22L3105.557,2013.146z"/>
			</g>
			<g style="opacity:0.2;">
				<path style="fill:#000072;" d="M3105.557,2013.146c-110.571,539.374-503.1,586.619-729.49,586.619l-7.188-15.89l57.603-177.821
					c0,0,113.077,89.761,202.838,38.496c56.468-32.253,58.974-293.412,37.469-415.75c80.634-55.664,116.422-105.605,116.422-105.605
					L3105.557,2013.146z"/>
			</g>
			<g style="opacity:0.2;">
				<path style="fill:#000072;" d="M2290.872,2411.107l-107.75-238.787c144.917,7.968,270.558-31.05,368.951-80.453l-19.381,35.317
					C2604.611,2269.634,2487.762,2364.583,2290.872,2411.107z"/>
			</g>
			<g>
				<path style="fill:#A54D21;" d="M2413.119,2371.112c-109.395,48.889-271.688,73.461-448.016,73.461c0-1.491,0-2.93-0.051-4.421
					v4.421c-189.694,0-339.495-40.817-443.03-82.972c41.537-90.528,164.196-287.984,443.389-287.984
					C2254.835,2073.617,2376.105,2285.775,2413.119,2371.112z"/>
			</g>
			<g>
				<path style="fill:#A54D21;" d="M1914.106,2177.46l-295.747,217.967c-117.312-35.06-197.61-80.298-235.96-105.745
					c125.691-80.967,267.628-128.21,374.144-132.426L1914.106,2177.46z"/>
			</g>
			<g>
				<path style="fill:#000072;" d="M2376.06,2618.67c-10.449,0-18.916-8.469-18.916-18.916c0-10.447,8.467-18.916,18.916-18.916
					c145.391,0,584.805,0.046,707.31-554.233l-294.248-82.129c-20.063,20.576-76.055,74.25-161.372,126.799
					c-91.563,56.396-234.282,120.979-407.427,120.987c-12.593,0.002-25.317-0.34-38.228-1.05
					c-10.43-0.576-18.423-9.497-17.847-19.929c0.571-10.427,9.277-18.399,19.927-17.849
					c346.064,19.06,582.607-240.249,584.956-242.871c4.81-5.361,12.227-7.524,19.175-5.596l322.354,89.976
					c9.565,2.671,15.439,12.288,13.442,22.019c-49.458,241.289-160.669,412.285-330.542,508.24
					C2645.235,2608.983,2484.249,2618.67,2376.06,2618.67z"/>
			</g>
			<g>
				<path style="fill:#5F5F82;" d="M1914.106,2177.46l-346.897,255.649l-26.166,49.557l-90.015,170.313l-2.468,4.678
					c0,0,47.809,113.868-25.138,198.741c-18.969,22.054-46.112,42.154-84.411,57.782
					c-168.925,69.04-323.867-101.838-212.056-346.281c0.051-0.103,0.051-0.154,0.051-0.154c4.986-10.95,10.538-22.054,16.656-33.312
					c123.224-226.707,423.854-369.723,612.88-377.177L1914.106,2177.46z"/>
			</g>
			<g style="opacity:0.2;">
				<path style="fill:#000072;" d="M1914.106,2177.46l-295.747,217.967c-117.312-35.06-197.61-80.298-235.96-105.745
					c125.691-80.967,267.628-128.21,374.144-132.426L1914.106,2177.46z"/>
			</g>
			<g style="opacity:0.2;">
				<path style="fill:#000072;" d="M1541.043,2482.666l-90.015,170.313c-50.328-20.254-99.525-40.817-98.549-43.542
					c10.384-28.839,90.786-164.812,149.082-197.405C1520.429,2401.494,1532.818,2435.217,1541.043,2482.666z"/>
			</g>
			<g style="opacity:0.2;">
				<path style="fill:#000072;" d="M1423.422,2856.398c-18.969,22.054-46.112,42.154-84.411,57.782
					c-168.925,69.04-323.867-101.838-212.056-346.281c-1.542,4.524-34.443,102.353,1.388,111.349
					c16.09,4.01,29.199-11.515,30.433-12.955c-1.028,2.57-27.914,69.4,6.22,70.377c29.251,0.874,51.613-66.213,121.785-77.574
					C1325.748,2652.773,1385.946,2771.987,1423.422,2856.398z"/>
			</g>
			<g>
				<path style="fill:#000072;" d="M1264.127,2948.387c-52.691,0.005-101.831-21.084-137.871-61.323
					c-58.911-65.779-89.649-195.332,0.762-361.665c57.685-106.13,160.337-204.939,289.038-278.228
					c112.749-64.199,239.751-104.885,339.741-108.835c1.05-0.044,2.109,0.005,3.159,0.139l157.588,20.249
					c10.361,1.33,17.681,10.81,16.352,21.172c-1.333,10.366-10.815,17.666-21.177,16.353l-155.996-20.044
					c-170.527,7.463-471.26,138.755-595.464,367.261c-81.021,149.055-56.128,262.185-5.82,318.359
					c44.077,49.209,110.391,62.236,177.407,34.868c50.395-20.591,84.399-51.294,101.055-91.25
					c27.969-67.097-1.509-139.758-1.812-140.486c-2.158-5.205-1.899-11.14,0.737-16.121l118.677-224.575
					c4.878-9.241,16.333-12.766,25.562-7.888c9.238,4.883,12.768,16.328,7.886,25.564l-114.731,217.112
					c8.159,23.938,26.777,92.949-1.245,160.586c-20.62,49.773-61.606,87.483-121.821,112.078
					C1318.736,2942.913,1290.968,2948.387,1264.127,2948.387z"/>
			</g>
			<g>
				<path style="fill:#FFFFFF;" d="M2553.532,3081.011c-17.647,94.855-53.138,167.063-104.905,221.133
					c-102.012,106.816-267.212,142.944-482.657,143.042h-1.078c-214.858-0.098-379.764-36.079-481.874-142.209
					c-52.158-54.168-87.943-126.621-105.64-221.966c-26.569-142.503-9.264-392.018,127.062-674.966
					c0,0,98.728-332.409,460.99-332.409c362.313,0,461.04,332.409,461.04,332.409
					C2562.797,2688.993,2580.102,2938.508,2553.532,3081.011z"/>
			</g>
			<g>
				<path style="fill:#FFFFFF;" d="M2553.532,3081.011c-17.647,94.855-53.138,167.063-104.905,221.133
					c-102.012,106.816-267.212,142.944-482.657,143.042h-1.078c-214.858-0.098-379.764-36.079-481.874-142.209
					c-52.158-54.168-87.943-126.621-105.64-221.966c-26.569-142.503-9.264-392.018,127.062-674.966
					c0,0,98.728-332.409,460.99-332.409c362.313,0,461.04,332.409,461.04,332.409
					C2562.797,2688.993,2580.102,2938.508,2553.532,3081.011z"/>
			</g>
			<g>
				<path style="fill:#FFFFFF;" d="M2553.509,3081.016c-17.64,94.87-53.11,167.038-104.896,221.141
					c-102.01,106.787-267.204,142.918-482.622,143.013h-1.088c-214.851-0.095-379.761-36.084-481.866-142.209
					c-52.164-54.15-87.964-126.603-105.652-221.945c-21.897-117.428-13.999-307.498,65.689-529.064
					c17.073-47.34,37.361-96.099,61.386-145.898c0,0,98.7-332.421,460.962-332.421c362.31,0,461.057,332.421,461.057,332.421
					c23.977,49.799,44.313,98.558,61.339,145.898C2567.508,2773.518,2575.406,2963.588,2553.509,3081.016z"/>
			</g>
			<g>
				<path style="fill:#FFFFFF;" d="M2553.509,3081.016c-17.64,94.87-53.11,167.038-104.896,221.141
					c-102.01,106.787-267.204,142.918-482.622,143.013h-1.088c-117.286-0.047-219.675-10.783-305.085-37.834
					c-71.081-22.464-130.434-56.184-176.78-104.375c-52.164-54.15-87.964-126.603-105.652-221.945
					c-7.803-41.948-11.823-93.214-10.121-151.857c3.027-105.463,24.592-234.856,75.81-377.207
					c17.073-47.34,37.361-96.099,61.386-145.898c0,0,98.7-332.421,460.962-332.421c362.31,0,461.057,332.421,461.057,332.421
					c23.977,49.799,44.313,98.558,61.339,145.898C2567.508,2773.518,2575.406,2963.588,2553.509,3081.016z"/>
			</g>
			<g>
				<path style="fill:#5F5F82;" d="M1659.818,3407.336c-71.081-22.464-130.434-56.184-176.78-104.375
					c-52.164-54.15-87.964-126.603-105.652-221.945c-7.803-41.948-11.823-93.214-10.121-151.857
					c194.42,29.605,335.021,170.537,335.021,170.537S1747.31,3282.908,1659.818,3407.336z"/>
			</g>
			<g>
				<path style="fill:#5F5F82;" d="M2270.699,3407.336c71.081-22.464,130.434-56.184,176.78-104.375
					c52.164-54.15,87.964-126.603,105.652-221.945c7.803-41.948,11.823-93.214,10.121-151.857
					c-194.42,29.605-335.021,170.537-335.021,170.537S2183.208,3282.908,2270.699,3407.336z"/>
			</g>
			<g style="opacity:0.2;">
				<path style="fill:#000072;" d="M2448.628,3302.342c-102.012,106.816-267.212,142.944-482.657,143.042h-1.078
					c-214.858-0.098-379.764-36.079-481.874-142.209c46.128-134.023,106.227-279.614,129.071-207.946
					c37.697,118.434,252.016,178.337,353.881,175.543c101.865,2.794,316.134-57.109,353.88-175.543
					C2342.646,3023.709,2402.5,3168.565,2448.628,3302.342z"/>
			</g>
			<g>
				<path style="fill:#5F5F82;" d="M2487.819,2551.952c-111.564,18.964-317.854,48.522-522.396,48.522
					s-410.737-29.511-522.348-48.522c17.073-47.34,37.361-96.099,61.386-145.898c0,0,2.175-18.681,11.114-47.151
					c28.801-91.749,127.69-285.27,449.849-285.27c334.265,0,428.236,208.325,452.875,295.154
					c6.479,22.843,8.182,37.267,8.182,37.267C2450.458,2455.854,2470.794,2504.612,2487.819,2551.952z"/>
			</g>
			<g style="opacity:0.2;">
				<circle style="fill:#000072;" cx="1964.576" cy="2498.808" r="209.587"/>
			</g>
			<g>
				<path style="fill:#545468;" d="M2174.174,2498.795c0,34.003-8.087,66.115-22.464,94.491
					c-60.393,4.398-123.387,7.189-186.286,7.189c-63.514,0-127.17-2.838-188.083-7.331c-14.33-28.375-22.37-60.392-22.37-94.349
					c0-115.726,93.876-209.554,209.601-209.554C2080.345,2289.241,2174.174,2383.069,2174.174,2498.795z"/>
			</g>
			<g style="opacity:0.2;">
				<path style="fill:#000072;" d="M2418.299,2368.787c-109.388,48.901-276.852,75.763-453.206,75.763c0-1.466,0-2.884-0.047-4.398
					v4.398c-189.691,0-345.946-43.462-449.47-85.646c28.801-91.749,127.69-285.27,449.849-285.27
					C2299.689,2073.633,2393.659,2281.958,2418.299,2368.787z"/>
			</g>
			<g>
				<path style="fill:#000072;" d="M2434.985,2401.921c92.801,168.959,146.824,361.021,148.64,554.331
					c0.721,191.956-64.682,370.247-251.473,450.546c-116.18,50.062-243.13,58.765-367.238,59.694c0-0.001,0-42.647,0-42.647
					c12.191-0.619,22.563,9.136,22.498,21.37c-0.025,11.795-9.629,21.331-21.423,21.274c-61.648-0.3-123.582-3.022-185.317-11.648
					c-92.468-12.77-188.115-39.236-264.744-96.306c-126.478-91.773-169.388-252.763-168.402-402.283
					c0.996-131.852,26.567-262.952,72.204-386.269c21.323-57.886,46.723-114.15,76.189-168.062c2.51-4.59,8.264-6.277,12.852-3.77
					c4.272,2.334,6.03,7.478,4.233,11.88c-45.808,111.898-84.638,226.605-106.909,345.325
					c-43.195,224.202-33.401,511.833,209.311,613.498c109.282,46.694,232.166,54.483,350.584,54.994c0-0.001,0,42.641,0,42.641
					l-1.074,0.002c-28.25-0.935-28.256-41.654-0.095-42.646c60.309-0.16,120.557-2.586,179.712-10.676
					c115.283-15.136,233.735-53.719,308.064-147.02c118.998-150.799,101.719-377.155,62.972-554.899
					c-10.284-42.198-22.054-89.511-35.527-130.664c-18.199-57.496-39.415-114.097-62.098-170.455
					C2413.44,2399.887,2428.798,2391.204,2434.985,2401.921L2434.985,2401.921z"/>
			</g>
			<g style="opacity:0.2;">
				<path style="fill:#000072;" d="M2174.174,2498.795c0,34.003-8.087,66.115-22.464,94.491
					c-60.393,4.398-123.387,7.189-186.286,7.189c-63.514,0-127.17-2.838-188.083-7.331c-14.33-28.375-22.37-60.392-22.37-94.349
					c0-115.726,93.876-209.554,209.601-209.554C2080.345,2289.241,2174.174,2383.069,2174.174,2498.795z"/>
			</g>
			<g>
				<g>
					<path style="fill:#5F5F82;" d="M1630.861,3126.654l-4.714,1.798c0,0,6.949,70.315-1.312,147.918
						c-7.726,73.522-29.253,153.604-83.289,186.599c-58.555,35.716-161.671,36.494-252.2,28.767
						c-92.473-7.872-147.724-42.082-156.568-99.374c-1.458-9.427-1.895-18.271-1.506-26.629
						c2.09-45.192,28.573-75.417,52.189-93.591c19.778-15.21,37.563-21.964,37.563-21.964
						c-78.041-319.648,67.837-471.988,249.042-436.661c172.118,33.53,232.228,286.167,232.228,286.167L1630.861,3126.654z"/>
				</g>
				<g style="opacity:0.2;">
					<path style="fill:#000072;" d="M1405.041,2843.045c-58.811,3.442-146.804,63.483-139.337,86.762
						c8.484,26.452,89.883,18.383,173.095,14.711c62.609-2.762,147.315-28.082,107.724-68.133
						C1516.854,2846.371,1448.927,2840.477,1405.041,2843.045z"/>
				</g>
				<g style="opacity:0.2;">
					<path style="fill:#000072;" d="M1626.147,3128.452c0,0,6.949,70.315-1.312,147.918
						c-7.726,73.522-29.253,153.604-83.289,186.599c-58.555,35.716-161.671,36.494-252.2,28.767
						c-92.473-7.872-147.724-42.082-156.568-99.374c-1.458-9.427-1.895-18.271-1.506-26.629
						c31.78,31.489,86.108,62.151,177.706,65.553c183.538,6.755,262.696-41.158,280.53-139.949
						c28.719-159.532-30.42-304.098,13.509-244.911c15.55,20.992,21.041,52.044,27.844,80.228L1626.147,3128.452z"/>
				</g>
				<g>
					<path style="fill:#000072;" d="M1693.12,3101.853c-38.644-102.732-102.483-236.787-216.852-266.969
						c-74.117-19.048-157.814,1.948-203.963,65.12c-71.347,98.207-58.182,232.649-32.073,345.486
						c2.355,9.737-2.928,19.534-12.003,23.086c-1.437,0.547-3.697,1.57-5.757,2.546c-14.365,6.957-28.091,16.285-39.468,27.346
						c-38.301,34.704-46.586,102.475-4.661,137.356c53.506,43.934,160.106,41.193,227.493,39.965
						c53.612-3.798,120.495-10.304,153.948-56.827c52.142-74.309,54.74-199.784,56.938-289.563
						c-0.141-11.54,16.675-13.24,18.824-1.87c10.473,63.162,11.621,127.335,2.139,190.756
						c-8.943,54.541-26.137,113.034-70.378,150.584c-26.601,22.127-62.415,32.841-95.064,38.662
						c-63.839,10.772-128.26,7.854-192.092,2.417c-44.683-4.915-90.079-14.846-126.638-44.702
						c-39.279-31.357-50.228-87.687-35.734-134.398c12.554-40.738,43.597-71.438,79.809-91.294
						c5.707-3.049,10.078-5.284,16.446-7.844c0,0-12.175,23.149-12.175,23.149c-20.224-83.581-30.85-171.043-14.219-256.86
						c15.875-88.452,72.993-174.759,163.94-199.816c65.394-18.457,139.28-10.096,196.945,26.241
						c74.789,47.651,120.388,128.583,147.483,210.735c6.413,20.457,12.004,40.791,15.515,62.31
						c0.842,5.166-2.661,10.039-7.83,10.881C1698.973,3109.13,1694.516,3106.256,1693.12,3101.853L1693.12,3101.853z"/>
				</g>
				<g>
					<path style="fill:#000072;" d="M1254.822,3261.304c67.082-27.27,159.844-29.702,222.737,9.315
						C1403.392,3256.837,1329.837,3260.13,1254.822,3261.304L1254.822,3261.304z"/>
				</g>
				<g>
					<path style="fill:#000072;" d="M1380.999,3340.774c-13.829,24.629-16.888,54.252-8.838,80.688
						c7.546,25.542,24.853,47.292,45.691,58.008l-21.687,31.001c-13.262-11.26-23.367-25.044-30.417-39.734
						C1345.262,3428.961,1349.759,3375.38,1380.999,3340.774L1380.999,3340.774z"/>
				</g>
				<g>
					<path style="fill:#000072;" d="M1249.014,3336.13c-21.404,46.084-29.342,114.184,26.891,136.721
						c-0.001,0-19.359,32.508-19.359,32.508C1195.106,3461.607,1208.819,3389.001,1249.014,3336.13L1249.014,3336.13z"/>
				</g>
				<g style="opacity:0.2;">
					<path style="fill:#000072;" d="M1281.356,3213.368c-17.494-10.128,11.663-92.686,67.248-98.488
						c76.581-7.993,146.648,87.814,110.911,100.503c-20.256,7.192-49.949-5.928-88.389-5.008
						C1329.513,3211.373,1290.928,3218.909,1281.356,3213.368z"/>
				</g>
			</g>
			<g>
				<g>
					<path style="fill:#5F5F82;" d="M2298.968,3126.654l4.714,1.798c0,0-6.949,70.315,1.312,147.918
						c7.726,73.522,29.253,153.604,83.289,186.599c58.555,35.716,161.671,36.494,252.2,28.767
						c92.473-7.872,147.724-42.082,156.568-99.374c1.458-9.427,1.895-18.271,1.506-26.629
						c-2.089-45.192-28.573-75.417-52.189-93.591c-19.778-15.21-37.563-21.964-37.563-21.964
						c78.041-319.648-67.837-471.988-249.042-436.661c-172.118,33.53-232.228,286.167-232.228,286.167L2298.968,3126.654z"/>
				</g>
				<g style="opacity:0.4;">
					<path style="fill:#FFFFFF;" d="M2524.787,2843.045c69.045,6.323,112.118,55.915,103.411,74.194
						c-10.681,22.424-58.051,22.424-135.142,19.902c-62.636-2.049-115.795-15.936-78.021-57.705
						C2439.185,2852.733,2481.01,2839.036,2524.787,2843.045z"/>
				</g>
				<g style="opacity:0.2;">
					<path style="fill:#000072;" d="M2303.681,3128.452c0,0-6.949,70.315,1.312,147.918c7.726,73.522,29.253,153.604,83.289,186.599
						c58.555,35.716,161.671,36.494,252.2,28.767c92.473-7.872,147.724-42.082,156.568-99.374
						c1.458-9.427,1.895-18.271,1.506-26.629c-31.78,31.489-86.108,62.151-177.706,65.553
						c-183.538,6.755-262.697-41.158-280.531-139.949c-28.719-159.532,30.419-304.098-13.509-244.911
						c-15.55,20.992-21.041,52.044-27.844,80.228L2303.681,3128.452z"/>
				</g>
				<g>
					<path style="fill:#000072;" d="M2218.308,3097.471c19.67-103.771,71.704-214.311,162.997-273.045
						c57.669-36.344,131.55-44.683,196.947-26.243c141.053,41.129,182.228,199.514,170.538,329.906
						c-3.223,43.022-10.633,85.353-20.819,126.772l-12.175-23.149c21.986,9.202,41.284,22.101,58.421,38.645
						c54.16,49.287,61.89,146.573,2.096,194.89c-36.547,29.862-81.957,39.791-126.635,44.703
						c-63.831,5.439-128.252,8.353-192.093-2.417c-32.65-5.813-68.467-16.538-95.066-38.662
						c-44.242-37.557-61.424-96.043-70.376-150.583c-9.484-63.422-8.333-127.594,2.138-190.757
						c2.253-11.396,18.93-9.638,18.826,1.871c2.198,89.802,4.779,215.183,56.934,289.563
						c33.447,46.539,100.349,53.017,153.949,56.827c67.398,1.241,173.985,3.954,227.493-39.963
						c41.927-34.89,33.627-102.654-4.661-137.357c-11.381-11.062-25.103-20.39-39.468-27.347c-2.045-0.974-4.355-2.005-5.752-2.546
						c-9.326-3.662-14.312-13.618-12.009-23.086c26.125-112.812,39.27-247.313-32.068-345.489
						c-71.167-96.299-222.229-93.154-300.966-6.592c-56.198,57.987-91.964,133.216-119.852,208.443
						C2233.098,3112.932,2216.539,3108.927,2218.308,3097.471L2218.308,3097.471z"/>
				</g>
				<g>
					<path style="fill:#000072;" d="M2675.007,3261.304c-75.017-1.174-148.568-4.466-222.737,9.317
						C2515.141,3231.61,2607.911,3234.028,2675.007,3261.304L2675.007,3261.304z"/>
				</g>
				<g>
					<path style="fill:#000072;" d="M2548.831,3340.774c31.241,34.615,35.736,88.18,15.251,129.963
						c-7.05,14.69-17.155,28.474-30.417,39.734l-21.687-31.001c20.837-10.715,38.145-32.466,45.691-58.008
						C2565.718,3395.023,2562.66,3365.407,2548.831,3340.774L2548.831,3340.774z"/>
				</g>
				<g>
					<path style="fill:#000072;" d="M2680.813,3336.13c40.221,52.9,53.887,125.492-7.53,169.228
						c0.001,0-19.359-32.507-19.359-32.507C2710.044,3450.573,2702.245,3381.969,2680.813,3336.13L2680.813,3336.13z"/>
				</g>
				<g style="opacity:0.2;">
					<path style="fill:#000072;" d="M2648.473,3213.368c17.494-10.128-11.662-92.686-67.248-98.488
						c-76.581-7.993-146.648,87.814-110.911,100.503c20.256,7.192,49.949-5.928,88.389-5.008
						C2600.315,3211.373,2638.901,3218.909,2648.473,3213.368z"/>
				</g>
			</g>
			<g>
				<path style="fill:#FF8710;" d="M1276.369,1751.353"/>
			</g>
			<g>
				<path style="fill:#5F5F82;" d="M1158.853,2666.195c78.226-106.788,301.596-129.627,371.857,21.301
					c83.343,179.028-199.622,107.114-199.622,107.114"/>
			</g>
			<g>
				<path style="fill:#000072;" d="M1155.039,2663.401c82.755-122.245,306.939-139.809,383.637-1.588
					c64.458,114.506,4.552,173.534-116.103,165.444c-32.852-1.879-64.001-6.703-96.145-14.313
					c-10.154-2.459-16.392-12.681-13.936-22.835c2.458-10.154,12.683-16.394,22.837-13.936
					c50.15,10.951,123.648,24.01,171.116,2.275c38.198-19.291,15.099-68.879-0.597-97.341
					c-54.211-89.942-179.913-105.311-270.672-64.669c-27.459,11.942-52.935,29.301-72.507,52.55
					C1159.062,2673.478,1151.811,2668.346,1155.039,2663.401L1155.039,2663.401z"/>
			</g>
			<g>
				<path style="fill:#5F5F82;" d="M1345.993,2910.791c-112.401,4.577-137.742-113.75-137.742-113.75s-11.274-55.406,13.056-93.9
					c3.565-3.614,7.275-7.083,11.129-10.407c0-0.048,0-0.048,0-0.048c112.546-98.477,333.252-84.553,360.617,38.832
					c1.542,6.938,2.698,13.586,3.517,19.994C1615.698,2895.711,1463.308,2906.021,1345.993,2910.791z"/>
			</g>
			<g style="opacity:0.2;">
				<path style="fill:#000072;" d="M1345.993,2910.791c-112.401,4.577-137.742-113.75-137.742-113.75s-11.274-55.406,13.056-93.9
					c3.565-3.614,7.275-7.083,11.129-10.407c-0.819,3.662-37.194,173.781,154.846,169.492
					c145.548-3.228,193.823-57.381,209.288-110.714C1615.698,2895.711,1463.308,2906.021,1345.993,2910.791z"/>
			</g>
			<g>
				<path style="fill:#000072;" d="M1217.515,2795.059c16.829,49.575,53.938,92.9,105.493,97.287
					c9.714,1.158,20.777,0.543,30.578-0.161c22.346-1.56,44.475-3.23,66.25-5.681c82.657-9.097,174.388-30.478,157.785-134.224
					c-7.766-89.846-114.595-112.209-189.638-103.336c-82.973,7.672-170.079,48.899-202.656,130.263
					c-1.948,4.868-7.48,7.233-12.344,5.273c-4.456-1.797-6.799-6.594-5.645-11.125c17.633-71.029,79.685-123.372,146.814-146.994
					c97.086-37.072,259.547-22.007,295.374,93.192c12.239,45.069,12.325,99.461-19.401,138.189
					c-54.792,65.063-156.77,68.853-234.972,70.975c-12.01,0.198-25.037,0.298-36.897-1.92
					c-64.085-9.271-108.688-66.89-119.24-127.781C1197.249,2787.129,1214.307,2783.602,1217.515,2795.059L1217.515,2795.059z"/>
			</g>
			<g>
				<path style="fill:#000072;" d="M1368.916,2751.377c51.622,32.163,65.204,110.157,45.06,165.073
					c-0.001,0-33.951-16.696-33.951-16.696c13.814-20.844,19.674-48.094,18.879-73.633
					C1397.931,2798.917,1389.613,2770.68,1368.916,2751.377L1368.916,2751.377z"/>
			</g>
			<g>
				<path style="fill:#000072;" d="M1481.501,2723.687c54.915,36.271,82.492,118.788,43.037,176.464
					c0,0-29.465-23.732-29.465-23.732C1536.45,2835.333,1519.894,2762.062,1481.501,2723.687L1481.501,2723.687z"/>
			</g>
			<g>
				<g>
					<g>
						<path style="fill:#5F5F82;" d="M2492.677,1080.387c-127.36-122.7-113.422-216.647-75.297-276.637
							c48.157-75.777,128.86-159.915,245.204-145.682c165.784,20.281,275,164.236,217.625,320.046
							c-34.285,93.107-97.792,144.343-155.975,172.516C2658.887,1182.272,2587.056,1171.314,2492.677,1080.387z"/>
					</g>
					<g style="opacity:0.2;">
						<path style="fill:#000072;" d="M2492.65,1080.378c94.419,90.913,166.22,101.876,231.602,70.271
							c45.432-22.024,94.123-58.074,129.628-117.184l-0.049-0.049c0,0-103.209,68.691-163.603-20.197
							c-46.567-68.493-146.073-206.763-266.861-218.565c-2.074,3.012-4.05,6.075-5.975,9.086
							C2379.269,863.739,2365.294,957.664,2492.65,1080.378z"/>
					</g>
					<g style="opacity:0.3;">
						<path style="fill:#FFFFFF;" d="M2377.165,878.976c48.522-83.619,136.759-188.414,268.846-172.234
							c138.175,16.94,238.871,115.797,244.056,237.714c31.405-142.347-73.72-267.567-227.47-286.385
							C2503.237,638.591,2410.763,803.604,2377.165,878.976z"/>
					</g>
					<g>
						<path style="fill:#000072;" d="M2370.234,871.309c24.052-91.44,98.976-185.997,188.729-220.758
							c48.558-18.973,102.76-17.263,152.406-3.292c98.592,25.987,185.563,106.685,200.292,210.493
							c12.31,76.481-16.236,153.594-61.274,214.455c-45.77,60.362-114.094,101.89-186.573,120.705
							c-24.316,5.719-33.684-29.458-9.738-36.557c65.36-17.107,125.249-53.321,166.198-107.053
							c69.676-92.966,81.616-213.157-5.162-299.599c-46.307-46.063-114.227-71.959-179.21-72.991
							c-67.134,0.178-124.271,39.179-167.676,89.964c-30.064,35.399-53.649,74.353-80.769,112.453
							C2381.604,887.849,2367.52,881.498,2370.234,871.309L2370.234,871.309z"/>
					</g>
					<g>
						<path style="fill:#686779;" d="M1438.146,1080.387c127.36-122.7,113.422-216.647,75.297-276.637
							c-48.157-75.777-128.86-159.915-245.204-145.682c-165.784,20.281-275,164.236-217.625,320.046
							c34.285,93.107,97.792,144.343,155.975,172.516C1271.935,1182.272,1343.766,1171.314,1438.146,1080.387z"/>
					</g>
					<g>
						<path style="fill:#5F5F82;" d="M1438.169,1080.378c-94.419,90.913-166.22,101.876-231.603,70.271
							c-45.432-22.024-94.122-58.074-129.628-117.184c-9.926-16.592-18.815-34.962-26.321-55.357
							c-57.382-155.801,51.851-299.749,217.627-320.046c111.702-13.679,190.516,63.358,239.207,136.591
							c2.074,3.012,4.049,6.075,5.975,9.086C1551.55,863.739,1565.525,957.664,1438.169,1080.378z"/>
					</g>
					<g style="opacity:0.2;">
						<path style="fill:#000072;" d="M1438.169,1080.378c-94.419,90.913-166.22,101.876-231.603,70.271
							c-45.432-22.024-94.122-58.074-129.628-117.184l0.049-0.049c0,0,103.209,68.691,163.603-20.197
							c46.567-68.493,146.073-206.763,266.861-218.565c2.074,3.012,4.049,6.075,5.975,9.086
							C1551.55,863.739,1565.525,957.664,1438.169,1080.378z"/>
					</g>
					<g style="opacity:0.3;">
						<path style="fill:#FFFFFF;" d="M1553.658,878.976c-48.523-83.619-136.759-188.414-268.846-172.234
							c-138.175,16.94-238.871,115.797-244.056,237.714c-31.405-142.347,73.72-267.567,227.471-286.385
							C1427.585,638.591,1520.059,803.604,1553.658,878.976z"/>
					</g>
					<g>
						<path style="fill:#000072;" d="M1543.364,879.128c-50.365-72.269-99.896-159.061-185.792-190.681
							c-41.114-16.168-85.116-13.817-127.682-2.558c-84.846,21.243-160.444,89.222-173.342,177.661
							c-13.31,87.206,33.52,178.879,100.467,233.393c34.579,28.115,76.056,47.768,119.601,59.377
							c10.161,2.625,16.245,13.048,13.538,23.186c-2.69,10.095-13.052,16.099-23.147,13.406
							c-48.162-12.827-94.507-34.661-133.777-66.55c-19.622-15.876-37.354-34.138-52.795-54.155
							c-45.04-60.85-73.589-137.982-61.274-214.456c14.744-103.812,101.691-184.502,200.294-210.492
							c63.232-18.196,130.321-14.144,187.489,19.971c73.609,44.85,131.528,121.34,153.647,204.077
							C1563.117,881.643,1549.36,887.809,1543.364,879.128L1543.364,879.128z"/>
					</g>
				</g>
				<g>
					<path style="fill:#FFFFFF;" d="M2080.026,2259.57c253.826-40.958,587.218-138.833,681.207-336.447
						c69.45-146.02,19.362-293.91,19.344-294.131c-1.813-8.719,34.361-617.186-435.228-830.065
						c-132.398-60.02-256.806-76.052-379.478-77.5c-122.672,1.448-247.08,17.48-379.478,77.5
						c-469.588,212.879-433.414,821.346-435.228,830.065c-0.017,0.221-50.106,148.111,19.344,294.131
						c93.989,197.614,427.381,295.488,681.207,336.447H2080.026z"/>
				</g>
				<g>
					<path style="fill:#FFFFFF;" d="M2792.573,1821.942c-5.333,32.543-15.062,66.913-31.358,101.184
						c-93.974,197.627-427.353,295.503-681.177,336.441h-228.343c-253.824-40.938-587.203-138.814-681.177-336.441
						c-14.123-29.728-23.308-59.505-28.987-88.097c-22.172-111.999,9.63-205.875,9.63-206.023
						c1.827-8.74-34.37-617.178,435.254-830.065c132.394-60.049,256.787-76.049,379.453-77.53
						c122.665,1.481,247.108,17.481,379.502,77.53c469.575,212.886,433.378,821.324,435.205,830.065
						C2780.573,1629.155,2809.906,1715.82,2792.573,1821.942z"/>
				</g>
				<g style="opacity:0.2;">
					<path style="fill:#000072;" d="M2792.573,1821.942c-5.333,32.543-15.062,66.913-31.358,101.184
						c-93.974,197.627-427.353,295.503-681.177,336.441l-7.581,1.752c-72.699,16.802-148.339,16.201-220.762-1.752h0
						c-253.824-40.938-587.203-138.814-681.177-336.441c-14.123-29.728-23.308-59.505-28.988-88.097
						c0.005-0.002-0.002,0.001,0.003-0.002c37.192,57.971,174.83,147.205,381.375,209.777c285.972,86.616,591.944,86.616,877.916,0
						c206.368-62.518,343.947-151.653,381.279-209.628C2785.314,1830.189,2788.82,1825.794,2792.573,1821.942z"/>
				</g>
				<g>
					<path style="fill:#000072;" d="M2078.521,2250.232c129.475-36.788,262.434-60.881,386.298-114.486
						c80.836-34.227,159.445-77.198,221.146-140.132c22.062-23.063,41.373-49.021,55.464-77.5
						c23.567-48.22,35.031-101.629,36.309-155.484c0.618-42.608-4.191-85.711-16.296-126.628c-1.698-5.063-1.209-8.05-1.263-17.993
						c0.552-179.42-34.554-362.786-122.072-520.647c-138.294-250.282-395.477-355.531-672.236-356.07
						c-230.814-0.93-472.116,78.297-614.961,267.972c-129.631,168.584-179.658,388.354-180.571,598.093
						c-0.231,7.936,0.716,17.644-0.311,25.557c0,0,0.344-2.415,0.344-2.415c-0.53,2.735-1.069,5.421-1.971,8.057
						c-26.266,96.662-19.544,205.2,29.348,293.479c80.711,133.75,251.429,202.2,395.126,248.725
						c85.87,26.688,173.489,45.245,260.348,69.473c10.816,2.875,8.279,19.255-3.013,18.674
						c-137.04-8.316-271.142-46.187-398.452-96.947c-120.354-50.282-251.358-127.282-304.505-252.579
						c-39.065-90.169-41.957-193.272-17.068-287.433c0.001,0,1.273-4.402,1.273-4.402l0.662-2.214l0.083-0.276
						c-0.199,0.782-0.34,1.616-0.244,2.432c-0.182-22.402,0.143-58.938,1.895-85.959
						c18.436-330.575,159.021-653.856,486.339-778.034c211.264-82.567,480.158-82.732,691.554-0.498
						c153.14,57.102,282.915,171.452,361.786,314.42c92.771,165.093,130.062,367.937,127.358,549.984
						c0.072-0.896-0.044-1.813-0.296-2.671l0.081,0.278l0.659,2.227c12.532,44.255,17.549,90.365,16.704,136.299
						c-1.63,65.018-17.415,131.048-49.422,188.254c-103.128,174.864-362.87,258.033-551.281,299.97
						c-44.752,9.071-90.069,15.311-135.802,17.149C2070.2,2269.068,2067.941,2253.419,2078.521,2250.232L2078.521,2250.232z"/>
				</g>
				<g>
					<path style="fill:#FFFFFF;" d="M2295.706,808.339c-28.637-63.786,115.881-63.051,101.059-121.773
						c-10.777-42.697-185.545-112.989-306.293,10.725c0,0-3.523-33.908-1.112-78.758c2.89-53.744-4.108-97.733-27.148-103.535
						c-46.681-11.755-120.288,87.414-274.35,185.028c-59.586,37.754-174.972,93.936-228.677,112.779l418.081,265.48
						L2295.706,808.339z"/>
				</g>
				<g style="opacity:0.4;">
					<path style="fill:#FFFFFF;" d="M2381.176,723.037c-43.469-40.107-189.189-79.073-294.11,28.416c0,0-3.494-33.898-1.081-78.757
						c2.869-53.744-4.141-97.725-27.146-103.537c-46.696-11.75-120.329,87.426-274.366,185.046
						c-43.686,27.65-117.342,65.261-174.724,90.739l-50.567-32.139c53.708-18.852,169.089-75.046,228.667-112.775
						c154.077-97.615,227.669-196.796,274.366-185.046c23.046,5.817,30.055,49.798,27.146,103.537
						c-2.414,44.859,1.121,78.762,1.121,78.762c120.72-123.721,295.515-53.417,306.273-10.738
						C2400.694,702.122,2393.417,713.488,2381.176,723.037z"/>
				</g>
				<g>
					<path style="fill:#000072;" d="M2287.078,812.212c-19.078-27.352,0.624-56.094,25.021-70.893
						c9.982-6.6,19.85-11.893,29.308-16.822c11.678-6.878,40.967-18.939,35.892-33.168c-11.192-15.997-34.536-25.442-53.526-31.913
						c-37.493-11.917-78.717-14.05-117.134-5.412c-39.077,8.652-74.455,28.902-103.12,56.98
						c-10.705,11.19-30.979,3.492-31.86-11.739c-2.674-29.957-2.46-58.526-0.894-88.18c0.697-18.616,0.314-39.024-3.291-56.189
						c-1.976-8.505-4.038-16.264-9.031-21.065c-0.335-0.227-0.528-0.329-0.667-0.395c-0.159-0.02,0.015-0.02-0.391-0.107
						c-4.184-0.951-8.699,0.047-15.357,2.656c-20.165,8.934-37.919,23.877-55.977,38.061
						c-25.005,20.235-50.105,41.487-75.959,61.868c-77.041,62.535-163,113.757-252.96,155.448
						c-30.226,14.229-59.926,27.865-91.686,39.313c-9.846,3.493-20.659-1.655-24.153-11.502
						c-3.513-9.888,1.714-20.762,11.628-24.199c59.772-22.291,117.936-51.521,174.256-81.567c56.65-30.379,109-67.3,159.448-107.171
						c25.354-19.983,50.022-40.874,75.696-61.658c27.594-20.641,60.535-52.458,98.811-48.971
						c60.023,9.881,46.144,109.314,46.312,152.918c-0.03,15.652,0.49,31.922,1.843,46.829c0.01-0.01-32.396-11.248-32.341-11.267
						c63.261-70.926,170.437-95.397,259.864-64.161c35.655,12.602,88.199,37.662,79.903,84.024
						c-11.263,44.815-66.228,52.881-99.302,73.8c-10.925,6.613-16.004,14.559-12.932,27.565
						C2306.173,815.349,2292.697,820.725,2287.078,812.212L2287.078,812.212z"/>
				</g>
				<g>
					<g>
						<path style="fill:#5F5F82;" d="M1675.334,1827.382c48.71-10.192,160.881-58.189,158.856-232.609
							c-1.986-171.169-68.273-226.619-177.24-229.064c-108.968-2.446-260.563,53.76-343.374,152.591
							c-59.001,70.415-73.245,189.001-47.076,238.214C1318.218,1853.775,1626.624,1837.574,1675.334,1827.382z"/>
					</g>
					<g>
						<g>
							<path style="fill:#5F5F82;" d="M2256.392,1827.382c-48.71-10.192-160.881-58.189-158.856-232.609
								c1.987-171.169,68.273-226.619,177.24-229.064c108.968-2.446,260.563,53.76,343.375,152.591
								c59.001,70.415,73.245,189.001,47.075,238.214C2613.508,1853.775,2305.102,1837.574,2256.392,1827.382z"/>
						</g>
					</g>
				</g>
				<g>
					<path style="fill:#5F5F82;" d="M1448.135,1113.319c-6.455-13.293,68.942-121.713,134.429-111.663
						c37.363,5.734,50.118,57.816,21.617,75.295C1580.775,1091.305,1459.28,1136.27,1448.135,1113.319z"/>
				</g>
				<g>
					<path style="fill:#5F5F82;" d="M2483.591,1113.319c6.455-13.293-68.942-121.713-134.429-111.663
						c-37.363,5.734-50.118,57.816-21.617,75.295C2350.951,1091.305,2472.446,1136.27,2483.591,1113.319z"/>
				</g>
				<g>
					<path style="fill:#000072;" d="M2462.839,1662.224c-12.72-55.273-65.576-115.807-123.459-114.471
						c-65.545,0.271-99.197,59.879-120.014,114.872c-3.07,7.536-11.668,11.156-19.205,8.087
						c-17.716-6.286-10.59-56.773-6.524-71.494c16.435-65.212,77.599-115.999,146.476-112.177
						c66.681,1.915,122.39,53.125,143.349,113.81c6.709,19.265,10.313,40.032,7.752,61.096c-0.952,7.832-8.074,13.411-15.906,12.458
						C2468.687,1673.615,2463.831,1668.447,2462.839,1662.224L2462.839,1662.224z"/>
				</g>
				<g>
					<path style="fill:#000072;" d="M1439.609,1661.948c-7.512-85.061,64.217-172.119,151.1-174.908
						c80.117-4.557,148.137,64.633,151.099,142.738c0.443,10.238-0.075,20.497-2.328,30.521
						c-3.025,13.951-22.771,15.479-27.988,2.407c-6.306-15.867-12.72-31.194-20.93-45.732c-20.53-39.098-54-69.044-99.119-69.22
						c-57.903-1.321-110.711,59.178-123.459,114.468C1465.372,1678.632,1441.764,1678.318,1439.609,1661.948L1439.609,1661.948z"/>
				</g>
				<g>
					<g>
						<polygon style="fill:#512717;" points="1973.857,1786.126 1971.838,1786.448 1971.838,1785.805 						"/>
					</g>
					<g>
						<polygon style="fill:#512717;" points="1975.83,1785.805 1975.83,1786.448 1973.857,1786.126 						"/>
					</g>
					<g>
						<path style="fill:#FFFFFF;" d="M2125.302,1791.748c0,0-11.944,41.964-46.658,54.56c-22.229,8.066-42.499,6.78-59.53,1.618
							c-31.992-9.696-53.224-40.086-53.224-73.515v-43.744h-0.046v43.744c0,33.429-21.232,63.819-53.224,73.515
							c-17.031,5.161-37.301,6.448-59.53-1.618c-34.714-12.596-46.658-54.56-46.658-54.56s-15.87-104.479,159.345-104.479
							S2125.302,1791.748,2125.302,1791.748z"/>
					</g>
					<g style="opacity:0.2;">
						<path style="fill:#000072;" d="M2116.095,1812.375c-7.196,12.52-19.176,27.287-37.436,33.942
							c-22.254,8.07-42.511,6.78-59.524,1.622c-32.029-9.692-53.243-40.098-53.243-73.541v-43.717h-0.042v43.717
							c0,33.443-21.255,63.849-53.242,73.541c-17.013,5.158-37.27,6.447-59.524-1.622c-18.261-6.655-30.24-21.422-37.478-33.942
							c24.957,4.576,47.918,1.997,67.926-4.076c49.457-15.016,82.318-62.019,82.318-113.723v-7.321h0.042v7.321
							c0,51.703,32.86,98.707,82.318,113.723C2068.218,1814.371,2091.137,1816.95,2116.095,1812.375z"/>
					</g>
					<g>
						<path style="fill:#000072;" d="M1984.763,1730.667c0.495,24.958,4.696,50.804-3.232,75.042
							c-28.154,90.743-173.644,89.419-184.195-11.373c-0.822-10.552,13.316-14.327,18.196-5.177
							c10.322,15.184,23.812,32.152,40.576,38.283c31.949,12.845,74.971,0.576,86.02-34.796c3.118-8.564,3.44-18.383,3.509-27.509
							c0.257-11.489,0.698-22.978,1.292-34.47C1948.755,1706.888,1982.9,1706.962,1984.763,1730.667L1984.763,1730.667z"/>
					</g>
					<g>
						<path style="fill:#000072;" d="M1984.807,1730.667c1.124,16.376,0.776,33.293,2.009,49.612
							c2.189,20.896,16.695,40.33,36.16,47.385c16.408,6.294,36.409,6.189,52.651-0.222c17.202-6.306,30.814-23.855,41.343-39.389
							c3.005-4.355,8.972-5.452,13.328-2.446c2.937,2.026,4.387,5.415,4.102,8.73c-0.627,7.08-2.046,12.976-4.106,19.263
							c-11.064,35.44-43.027,56.464-79.381,58.007c-43.764,3.799-88.058-23.497-100.707-65.898
							c-7.928-24.239-3.724-50.079-3.231-75.041C1948.85,1706.854,1982.927,1706.976,1984.807,1730.667L1984.807,1730.667z"/>
					</g>
				</g>
				<g>
					<path style="fill:#000072;" d="M2064.718,1686.015c0.055,54.596-98.776,79.223-98.776,79.223s-98.88-24.428-98.934-79.025
						c-0.028-28.018,98.845-28.117,98.845-28.117S2064.69,1657.996,2064.718,1686.015z"/>
				</g>
				<g style="opacity:0.5;">
					<path style="fill:#FFFFFF;" d="M2008.887,1680.593c0.014,14.141-24.486,20.519-42.529,20.537
						c-18.042,0.018-42.556-6.31-42.57-20.452c-0.007-7.257,42.549-7.3,42.549-7.3S2008.88,1673.336,2008.887,1680.593z"/>
				</g>
			</g>
			<g>
				<path style="fill:#FF5555;" d="M2494.74,2252.922c-23.736,26.809-150.348,125.032-516.573,125.032
					s-554.228-113.467-554.228-113.467s0-65.651,48.821-107.251c265.237,66.827,428.119,67.188,505.407,67.188
					s261.817-6.46,527.054-73.287C2531.865,2171.518,2511.608,2233.871,2494.74,2252.922z"/>
			</g>
			<g>
				<path style="fill:#000072;" d="M1978.165,2396.871c-367.271,0-556.143-111.443-564.004-116.187
					c-5.674-3.425-9.141-9.568-9.141-16.196c0-3.037,0.63-74.924,55.469-121.65c4.663-3.975,10.957-5.437,16.894-3.945
					c264.395,66.616,424.053,66.616,500.781,66.616c106.67,0,283.901-12.617,522.432-72.715c5.605-1.404,11.533-0.186,16.118,3.318
					c7.925,6.062,17.813,17.834,19.912,39.49c3.062,31.563-11.86,71.946-27.72,89.861c0,0,0,0,0,0.002
					C2496.998,2278.914,2380.924,2396.871,1978.165,2396.871z M1443.702,2253.709c43.101,22.251,224.829,105.33,534.463,105.33
					c392.788,0,498.1-113.784,502.412-118.655l0,0c8.828-9.971,20.439-40.034,18.394-61.13c-0.2-2.09-0.586-4.49-1.299-6.733
					c-236.187,58.44-412.52,70.821-519.507,70.821c-77.275,0-237.051-0.003-500.044-65.264
					C1453.053,2203.646,1445.802,2236.878,1443.702,2253.709z M2494.742,2252.923h0.049H2494.742z"/>
			</g>
			<g>
				<path style="fill:#DD2A2A;" d="M2482.648,2197.043c-4.352,13.677-10.664,25.823-16.498,32.47
					c-22.284,25.153-141.213,117.398-485.038,117.398c-277.476,0-445.976-69.371-500.701-96.16
					c-13.095-6.411-4.215-34.629,2.682-31.604c73.758,32.356,242.43,90.464,502.323,90.464
					C2307.818,2309.611,2441.427,2232.19,2482.648,2197.043z"/>
			</g>
			<g>
				<g>
					<circle style="fill:#FFC303;" cx="1965.456" cy="2467.65" r="178.843"/>
				</g>
				<g>
					<path style="fill:#FF9F06;" d="M2139.915,2507.04c-17.885,79.791-89.192,139.462-174.486,139.462
						c-85.236,0-156.543-59.671-174.486-139.462c34.335,60.932,99.567,102.089,174.486,102.089
						C2040.348,2609.129,2105.637,2567.972,2139.915,2507.04z"/>
				</g>
				<g>
					<path style="fill:#FF9F06;" d="M2144.271,2467.661c0,30.724-7.739,59.671-21.382,84.892h-314.865
						c-13.699-25.221-21.438-54.168-21.438-84.892c0-19.432,3.096-38.176,8.828-55.716h340.029
						C2141.176,2429.485,2144.271,2448.229,2144.271,2467.661z"/>
				</g>
				<g style="opacity:0.5;">
					<path style="fill:#FFFFFF;" d="M2144.271,2466.858c-20.751-79.39-92.975-137.972-178.842-137.972
						c-85.982,0-158.206,58.697-178.842,138.201c0.287-98.477,80.25-178.268,178.842-178.268
						C2063.965,2288.819,2143.813,2368.438,2144.271,2466.858z"/>
				</g>
				<g>
					<path style="fill:#000072;" d="M1965.455,2665.408c-109.043,0-197.759-88.713-197.759-197.759
						c0-109.045,88.716-197.759,197.759-197.759c109.043,0,197.759,88.713,197.759,197.759
						C2163.214,2576.695,2074.498,2665.408,1965.455,2665.408z M1965.455,2307.723c-88.184,0-159.927,71.743-159.927,159.927
						s71.743,159.927,159.927,159.927c88.183,0,159.927-71.743,159.927-159.927S2053.638,2307.723,1965.455,2307.723z"/>
				</g>
				<g>
					
						<ellipse transform="matrix(0.2298 -0.9732 0.9732 0.2298 -965.4301 3873.6628)" style="fill:#000072;" cx="1964.576" cy="2546.768" rx="36.635" ry="36.635"/>
				</g>
				<g>
					<rect x="1955.262" y="2561.256" style="fill:#000072;" width="19.87" height="76.996"/>
				</g>
				<g>
					<path style="fill:#FFC303;" d="M2133.393,2513.724h-335.875c-20.994,0-38.013-17.019-38.013-38.013v-16.121
						c0-20.994,17.019-38.013,38.013-38.013h335.875c20.994,0,38.013,17.019,38.013,38.013v16.121
						C2171.406,2496.705,2154.387,2513.724,2133.393,2513.724z"/>
				</g>
				<g>
					<path style="fill:#FF9F06;" d="M2171.384,2467.661c0,12.725-5.16,24.247-13.471,32.558
						c-8.311,8.369-19.833,13.528-32.558,13.528h-319.795c-25.45,0-46.029-20.636-46.029-46.086c0-8.426,2.236-16.279,6.191-23.043
						c7.91,13.757,22.814,23.043,39.838,23.043h319.795c12.725,0,24.247-5.159,32.558-13.528c2.809-2.809,5.274-6.019,7.28-9.515
						C2169.148,2451.382,2171.384,2459.235,2171.384,2467.661z"/>
				</g>
				<g style="opacity:0.5;">
					<path style="fill:#FFFFFF;" d="M2171.384,2467.661c0,5.388-0.917,10.604-2.694,15.419
						c-6.306-17.884-23.33-30.667-43.335-30.667h-319.795c-12.725,0-24.247,5.159-32.558,13.528
						c-4.758,4.758-8.483,10.605-10.777,17.139c-1.777-4.815-2.694-10.031-2.694-15.419c0-12.725,5.159-24.247,13.471-32.558
						c8.311-8.369,19.833-13.528,32.558-13.528h319.795C2150.805,2421.575,2171.384,2442.21,2171.384,2467.661z"/>
				</g>
				<g>
					<path style="fill:#000072;" d="M2133.394,2532.64H1797.52c-31.392,0-56.929-25.537-56.929-56.929v-16.123
						c0-31.392,25.537-56.929,56.929-56.929h335.874c31.392,0,56.929,25.537,56.929,56.929v16.123
						C2190.323,2507.103,2164.786,2532.64,2133.394,2532.64z M1797.52,2440.491c-10.527,0-19.097,8.567-19.097,19.097v16.123
						c0,10.53,8.569,19.097,19.097,19.097h335.874c10.527,0,19.097-8.567,19.097-19.097v-16.123c0-10.53-8.569-19.097-19.097-19.097
						H1797.52z"/>
				</g>
			</g>
			<g>
				<g>
					<path style="fill:#52BF2E;" d="M2734.771,2924.895c0-67.21-4.681-138.827-18.289-219.737
						c-7.626-45.347-12.814-77.14,8.806-103.326c26.646-32.273,102.41-54.671,202.149-54.671s175.503,22.397,202.149,54.671
						c21.62,26.186,16.432,57.979,8.806,103.326c-13.607,80.91-18.289,152.527-18.289,219.737c0,67.21,4.681,138.827,18.289,219.737
						c7.626,45.347,12.814,77.14-8.806,103.326c-26.646,32.273-102.41,54.671-202.149,54.671s-175.503-22.397-202.149-54.671
						c-21.62-26.186-16.432-57.979-8.806-103.326C2730.09,3063.722,2734.771,2992.105,2734.771,2924.895z"/>
				</g>
				<g>
					<path style="fill:#52BF2E;" d="M3138.37,3144.61c7.661,45.354,12.816,77.182-8.796,103.334
						c-26.626,32.302-102.389,54.671-202.129,54.671s-175.503-22.369-202.176-54.671c-18.444-22.322-17.356-48.758-11.918-84.228
						c0.946-6.101,2.034-12.438,3.122-19.106c13.62-80.87,18.302-152.519,18.302-219.722c0-67.203-4.682-138.804-18.302-219.722
						c-7.614-45.353-12.816-77.134,8.796-103.334c5.297-6.385,12.485-12.391,21.471-17.924
						c36.179-22.322,100.734-36.746,180.706-36.746c99.74,0,175.503,22.417,202.129,54.671c21.613,26.2,16.458,57.981,8.796,103.334
						c-13.573,80.918-18.255,152.519-18.255,219.722C3120.115,2992.091,3124.797,3063.739,3138.37,3144.61z"/>
				</g>
				<g>
					<path style="fill:#389113;" d="M3100.394,3187.032c0,63.324-119.32,87.397-248.523,73.776
						c-40.431-4.271-72.374-13.542-95.795-26.724c-20.69-11.645-22.996-50.249-7.419-41.97
						c46.731,24.836,123.306,35.926,189.84,5.683c96.673-43.943,128.138-418.466,26.882-460.431
						c-114.481-47.446-218.876-47.476-218.639-153.459c36.179-22.322,100.734-36.746,180.706-36.746
						c75.053,0,136.487,12.674,173.659,32.726c25.349,49.563-18.208,180.99-21.944,325.8
						C3076.795,2998.759,3100.394,3123.706,3100.394,3187.032z"/>
				</g>
				<g>
					<path style="fill:#000072;" d="M2927.437,3321.546c-103.896,0-184.922-23.008-216.738-61.543
						c-27.256-33.013-20.908-70.742-12.876-118.511c12.134-72.124,18.032-142.979,18.032-216.597s-5.898-144.47-18.032-216.602
						c-8.032-47.766-14.38-85.496,12.881-118.506c31.816-38.538,112.837-61.543,216.733-61.543s184.917,23.005,216.738,61.543
						c27.256,33.01,20.908,70.74,12.876,118.506c-12.134,72.131-18.032,142.983-18.032,216.602s5.898,144.473,18.032,216.597
						c8.032,47.769,14.38,85.498-12.881,118.511C3112.359,3298.538,3031.334,3321.546,2927.437,3321.546z M2927.437,2566.077
						c-102.305,0-167.92,24.006-187.559,47.798c-15.532,18.811-12.31,43.162-4.741,88.145c12.48,74.226,18.55,147.129,18.55,222.876
						s-6.069,148.647-18.55,222.876c-7.568,44.98-10.791,69.331,4.741,88.14c19.639,23.794,85.254,47.802,187.559,47.802
						s167.92-24.009,187.559-47.802c15.532-18.809,12.31-43.159,4.741-88.14c-12.48-74.229-18.55-147.129-18.55-222.876
						s6.069-148.65,18.55-222.876c7.568-44.983,10.791-69.334-4.741-88.145C3095.357,2590.084,3029.742,2566.077,2927.437,2566.077z
						"/>
				</g>
				<g style="opacity:0.5;">
					<path style="fill:#FFFFFF;" d="M2908.513,3116.254c-32.742,37.187-120.957,17.496-139.891-2.091
						c-25.986-26.882,35.321-123.842,15.749-220.135c-22.402-110.217-20.549-144.281,3.286-149.943
						c22.008-5.228,29.869,19.415,73.777,34.947c32.453,11.48,60.405,18.524,58.777,39.629
						c-2.266,29.378-34.085,78.652-32.143,139.3C2890.355,3029.427,2939.562,3080.99,2908.513,3116.254z"/>
				</g>
				<g>
					<path style="fill:#52BF2E;" d="M2734.771,2283.639c0-67.21-4.681-138.827-18.289-219.737
						c-7.626-45.347-12.814-77.14,8.806-103.326c26.646-32.273,102.41-54.671,202.149-54.671
						c99.739,0,175.503,22.398,202.149,54.671c21.62,26.186,16.432,57.979,8.806,103.326
						c-13.607,80.91-18.289,152.527-18.289,219.737c0,67.21,4.681,138.827,18.289,219.737c7.626,45.347,12.814,77.14-8.806,103.326
						c-26.646,32.273-102.41,54.671-202.149,54.671s-175.503-22.398-202.149-54.671c-21.62-26.186-16.432-57.979-8.806-103.326
						C2730.09,2422.467,2734.771,2350.85,2734.771,2283.639z"/>
				</g>
				<g>
					<path style="fill:#52BF2E;" d="M3138.37,2503.354c7.661,45.354,12.816,77.182-8.796,103.335
						c-26.626,32.301-102.389,54.671-202.129,54.671s-175.503-22.369-202.176-54.671c-18.444-22.322-17.356-48.759-11.918-84.228
						c0.946-6.101,2.034-12.438,3.122-19.107c13.62-80.87,18.302-152.519,18.302-219.722c0-67.203-4.682-138.804-18.302-219.722
						c-7.614-45.353-12.816-77.134,8.796-103.334c5.297-6.385,12.485-12.391,21.471-17.924
						c36.179-22.322,100.734-36.747,180.706-36.747c99.74,0,175.503,22.417,202.129,54.671c21.613,26.2,16.458,57.981,8.796,103.334
						c-13.573,80.918-18.255,152.519-18.255,219.722C3120.115,2350.835,3124.797,2422.484,3138.37,2503.354z"/>
				</g>
				<g>
					<path style="fill:#389113;" d="M3100.394,2545.776c0,63.324-119.32,87.397-248.523,73.776
						c-40.431-4.271-72.374-13.542-95.795-26.724c-20.69-11.645-22.996-50.249-7.419-41.97
						c46.731,24.837,123.306,35.926,189.84,5.683c96.673-43.943,133.606-422.274,27.448-449.557
						c-66.938-17.203-207.889,16.727-228.727-80.049c-2.994-13.906,9.479-65.621,9.521-84.284
						c36.179-22.322,100.734-36.747,180.706-36.747c75.053,0,136.487,12.674,173.659,32.726
						c25.349,49.563-18.208,180.99-21.944,325.8C3076.795,2357.503,3100.394,2482.45,3100.394,2545.776z"/>
				</g>
				<g>
					<path style="fill:#000072;" d="M2927.437,2680.289c-103.896,0-184.917-23.005-216.738-61.543
						c-27.256-33.01-20.908-70.74-12.876-118.506c12.134-72.131,18.032-142.981,18.032-216.602
						c0-73.618-5.898-144.468-18.032-216.599c-8.032-47.766-14.38-85.495,12.881-118.506
						c31.816-38.538,112.837-61.543,216.733-61.543s184.917,23.005,216.738,61.543c27.256,33.01,20.908,70.74,12.876,118.506
						c-12.134,72.131-18.032,142.981-18.032,216.599c0,73.621,5.898,144.47,18.032,216.602
						c8.032,47.766,14.38,85.496-12.881,118.506C3112.354,2657.283,3031.334,2680.289,2927.437,2680.289z M2927.437,1924.823
						c-102.305,0-167.92,24.006-187.559,47.798c-15.532,18.811-12.31,43.162-4.741,88.145c12.48,74.226,18.55,147.129,18.55,222.874
						s-6.069,148.65-18.55,222.876c-7.568,44.983-10.791,69.333,4.741,88.145c19.639,23.792,85.254,47.798,187.559,47.798
						s167.92-24.006,187.559-47.798c15.532-18.811,12.31-43.162,4.741-88.145c-12.48-74.226-18.55-147.131-18.55-222.876
						s6.069-148.647,18.55-222.874c7.568-44.983,10.791-69.333-4.741-88.145C3095.357,1948.829,3029.742,1924.823,2927.437,1924.823
						z"/>
				</g>
				<g style="opacity:0.5;">
					<path style="fill:#FFFFFF;" d="M2908.513,2474.999c-32.742,37.187-120.957,17.496-139.891-2.091
						c-25.986-26.882,35.321-123.842,15.749-220.135c-22.402-110.217-20.549-144.281,3.286-149.943
						c22.008-5.228,29.869,19.415,73.777,34.947c32.453,11.48,60.405,18.523,58.777,39.629
						c-2.266,29.378-34.085,78.652-32.143,139.301C2890.355,2388.172,2939.562,2439.735,2908.513,2474.999z"/>
				</g>
			</g>
			<g>
				<path style="fill:#C1612B;" d="M2727.484,1867.605c-33.677,55.964-36.536,195.357,152.718,196.879
					c172.766,1.389,167.602-87.042,228.317-122.264C3134.808,1788.636,2813.642,1724.43,2727.484,1867.605z"/>
			</g>
			<g>
				<path style="fill:#5F5F82;" d="M3108.527,1942.207c-60.724,35.233-55.569,123.67-228.329,122.299
					c-162.355-1.324-183.306-104.091-164.72-168.599v-0.047c3.074-10.688,7.235-20.288,12.012-28.234
					c71.175-118.326,302.816-95.059,366.33,3.263C3107.156,1891.557,3113.114,1915.534,3108.527,1942.207z"/>
			</g>
			<g style="opacity:0.4;">
				<path style="fill:#FFFFFF;" d="M2811.402,1834.39c27.778-33.453,184.225-21.758,217.746,15.831
					c20.487,22.973-41.264,6.86-108.046,0C2862.855,1844.237,2798.461,1849.974,2811.402,1834.39z"/>
			</g>
			<g style="opacity:0.2;">
				<path style="fill:#000072;" d="M3108.527,1942.207c-60.724,35.233-55.569,123.67-228.329,122.299
					c-162.355-1.324-183.306-104.091-164.72-168.599c0,0-5.487,108.584,138.331,114.732
					c140.554,5.959,222.938-80.918,240.011-139.75C3107.156,1891.557,3113.114,1915.534,3108.527,1942.207z"/>
			</g>
			<g>
				<path style="fill:#512717;" d="M2884.127,2083.736c-1.353,0-2.71-0.005-4.082-0.015
					c-106.201-0.854-152.173-43.318-172.041-78.791c-28.35-50.63-18.32-111.819,2.998-147.244l0,0
					c55.781-92.688,196.548-108.179,300.43-69.592c84.18,31.265,127.563,90.095,116.05,157.371
					c-0.962,5.625-4.37,10.532-9.307,13.396c-15.225,8.833-25.952,22.327-38.364,37.952
					C3049,2035.584,3010.733,2083.736,2884.127,2083.736z M2900.03,1807.003c-64.15,0-126.65,21.65-156.06,70.522l0,0
					c-13.164,21.87-24.663,68.84-2.393,108.606c21.343,38.115,69.331,58.557,138.779,59.114
					c111.299,1.05,140.708-36.35,169.326-72.368c11.772-14.812,23.887-30.059,40.879-41.985
					c4.99-65.137-68.96-97.978-92.529-106.731C2967.965,1812.994,2933.765,1807.003,2900.03,1807.003z M2727.486,1867.606h0.049
					H2727.486z"/>
			</g>
			<g>
				<path style="fill:#000072;" d="M2884.127,2083.736c-1.353,0-2.71-0.005-4.082-0.015
					c-106.201-0.854-152.173-43.318-172.041-78.791c-28.35-50.63-18.32-111.819,2.998-147.244l0,0
					c55.781-92.688,196.548-108.179,300.43-69.592c84.18,31.265,127.563,90.095,116.05,157.371
					c-0.962,5.625-4.37,10.532-9.307,13.396c-15.225,8.833-25.952,22.327-38.364,37.952
					C3049,2035.584,3010.733,2083.736,2884.127,2083.736z M2900.03,1807.003c-64.15,0-126.65,21.65-156.06,70.522l0,0
					c-13.164,21.87-24.663,68.84-2.393,108.606c21.343,38.115,69.331,58.557,138.779,59.114
					c111.299,1.05,140.708-36.35,169.326-72.368c11.772-14.812,23.887-30.059,40.879-41.985
					c4.99-65.137-68.96-97.978-92.529-106.731C2967.965,1812.994,2933.765,1807.003,2900.03,1807.003z M2727.486,1867.606h0.049
					H2727.486z"/>
			</g>
			<g>
				<path style="fill:#000072;" d="M2904.558,1917.854c-8.773,36.033-23.895,126.045,32.56,124.761
					c0.001,0-4.701,37.539-4.701,37.539C2852.473,2062.443,2877.193,1970.321,2904.558,1917.854L2904.558,1917.854z"/>
			</g>
			<g>
				<path style="fill:#000072;" d="M2788.186,1895.918c-13.972,36.308-19.375,80.389-1.104,115.505
					c5.533,10.74,13.418,19.67,22.332,27.141l-27.644,25.83c-9.773-12.964-17.415-27.673-21.284-43.083
					C2749.159,1977.506,2763.868,1931.985,2788.186,1895.918L2788.186,1895.918z"/>
			</g>
		</g>
		<g>
			<g>
				<path style="fill:#FFFFFF;" d="M871.446,1175.596c22.838-37.365,34.098-82.219,29.28-129.144
					C889.032,932.557,787.222,849.706,673.326,861.4c-113.896,11.694-196.747,113.505-185.052,227.401
					c11.694,113.896,113.505,196.747,227.401,185.052c31.68-3.253,60.946-13.496,86.456-29.013l95.938,21.516L871.446,1175.596z"/>
			</g>
			<g style="opacity:0.5;">
				<g>
					<path style="fill:#FFFFFF;" d="M677.398,901.063c106.395-10.924,202.219,60.663,223.916,162.98
						c0.026-7.309-0.289-14.682-1.052-22.116c-11.694-113.896-113.504-196.747-227.4-185.052
						c-113.896,11.694-196.747,113.505-185.053,227.401c0.767,7.466,1.942,14.79,3.461,21.972
						C491.671,1001.612,570.969,911.991,677.398,901.063z"/>
				</g>
			</g>
			<g>
				<path style="fill:#000072;" d="M694.332,1293.184c-114.107,0-212.295-86.599-224.199-202.522
					c-6.152-59.929,11.401-118.669,49.429-165.398c38.023-46.729,91.973-75.85,151.904-82.004
					c59.873-6.147,118.667,11.399,165.396,49.426c46.728,38.027,75.854,91.975,82.007,151.904
					c4.8,46.777-4.771,92.729-27.705,133.435l24.399,83.198c1.821,6.196,0.225,12.891-4.189,17.603
					c-4.414,4.707-11.011,6.731-17.295,5.322l-88.931-19.944c-27.017,15.249-56.45,24.59-87.612,27.788
					C709.742,1292.794,702.003,1293.184,694.332,1293.184z M694.854,878.529c-6.528,0-13.086,0.334-19.668,1.011
					c-50.239,5.159-95.464,29.573-127.339,68.745c-31.88,39.172-46.597,88.413-41.436,138.652
					c5.156,50.242,29.57,95.464,68.745,127.344c39.175,31.877,88.403,46.589,138.657,41.433
					c28.223-2.898,54.746-11.797,78.838-26.453c4.033-2.456,8.872-3.247,13.467-2.214l65.742,14.744l-17.91-61.062
					c-1.45-4.934-0.747-10.251,1.938-14.641c21.724-35.549,30.957-76.274,26.699-117.773c-5.156-50.239-29.57-95.464-68.745-127.341
					C779.801,893.27,738.15,878.529,694.854,878.529z"/>
			</g>
			<g style="opacity:0.3;">
				<path style="fill:#000072;" d="M872.61,1173.605c-56.783,48.029-135.01,69.062-212.692,49.728
					c-86.151-21.442-149.626-87.044-172.457-166.664c-0.546,10.557-0.301,21.288,0.813,32.131
					c11.694,113.896,113.505,196.746,227.401,185.052c31.68-3.253,60.946-13.495,86.456-29.013l95.938,21.516l-26.621-90.759
					C871.847,1174.941,872.217,1174.265,872.61,1173.605z"/>
			</g>
			<g>
				<path style="fill:#FF0068;" d="M760.79,1009.412L760.79,1009.412c-17.941-17.941-47.029-14.726-64.97,3.215l-2.792,2.792
					l-2.792-2.792c-17.941-17.941-47.029-21.156-64.97-3.215l0,0c-17.941,17.941-17.941,47.029,0,64.97l2.792,2.792l56.406,56.406
					c4.73,4.73,12.398,4.73,17.128,0l56.406-56.406l2.792-2.792C778.732,1056.441,778.732,1027.353,760.79,1009.412z"/>
			</g>
		</g>
	</g>
</g>
</svg>
